/* XPM */
static char * soteria16_xpm[] = {
"16 16 67 1",
" 	c None",
".	c #02DEA2",
"+	c #02C2AF",
"@	c #02EB98",
"#	c #01E89B",
"$	c #01A794",
"%	c #018399",
"&	c #266ACD",
"*	c #4B49DD",
"=	c #02EC96",
"-	c #00C4A3",
";	c #008DA6",
">	c #613CDF",
",	c #02E394",
"'	c #00BE9F",
")	c #008FA7",
"!	c #5A40D1",
"~	c #02DC98",
"{	c #008285",
"]	c #00C2A9",
"^	c #008EAE",
"/	c #004871",
"(	c #4A46BE",
"_	c #01C898",
":	c #00C6A2",
"<	c #00C4A7",
"[	c #009C9C",
"}	c #036D93",
"|	c #185BAE",
"1	c #1F4DA8",
"2	c #3249A2",
"3	c #02A492",
"4	c #00DBAE",
"5	c #00C4B4",
"6	c #88B0AD",
"7	c #71879B",
"8	c #1F58B6",
"9	c #284EB9",
"0	c #164384",
"a	c #01B29C",
"b	c #00B7A6",
"c	c #84A485",
"d	c #D7CE99",
"e	c #BFAB7D",
"f	c #7C6F81",
"g	c #1F4BA7",
"h	c #124685",
"i	c #019695",
"j	c #009B9E",
"k	c #959D73",
"l	c #D7CD98",
"m	c #BEAA7C",
"n	c #847469",
"o	c #104B8D",
"p	c #04456F",
"q	c #018B9B",
"r	c #0198AC",
"s	c #50697B",
"t	c #4B6073",
"u	c #034A76",
"v	c #03476E",
"w	c #026583",
"x	c #004C6E",
"y	c #015B83",
"z	c #014669",
"A	c #004F70",
"B	c #014869",
"                ",
"                ",
"       .+       ",
"    @# $% &*    ",
"   =   -;   >   ",
"   ,   ')   !   ",
"   ~  {]^/  (   ",
"   _ :<[}|1 2   ",
"    34567890    ",
"    abcdefgh    ",
"    ijklmnop    ",
"     qrstuv     ",
"      wxyz      ",
"       AB       ",
"                ",
"                "};
