/* XPM */
static char * soteria32_xpm[] = {
"32 32 238 2",
"  	c None",
". 	c #02E0A0",
"+ 	c #00DFA7",
"@ 	c #00CDAB",
"# 	c #02C0AD",
"$ 	c #00E5A1",
"% 	c #01E0A2",
"& 	c #00B3B6",
"* 	c #00A9C1",
"= 	c #0696C3",
"- 	c #01EA9B",
"; 	c #00E89D",
"> 	c #01E49E",
", 	c #0A8BC5",
"' 	c #1879CF",
") 	c #2D64D6",
"! 	c #00F09A",
"~ 	c #01EC99",
"{ 	c #01EA99",
"] 	c #01978F",
"^ 	c #00D2AB",
"/ 	c #00A1AF",
"( 	c #027390",
"_ 	c #454CDB",
": 	c #5443E2",
"< 	c #623FEA",
"[ 	c #00EF99",
"} 	c #017483",
"| 	c #00E5AF",
"1 	c #00E7B5",
"2 	c #00AEBF",
"3 	c #00A1BE",
"4 	c #025176",
"5 	c #653EE8",
"6 	c #00EC99",
"7 	c #037986",
"8 	c #009595",
"9 	c #009296",
"0 	c #018298",
"a 	c #017A97",
"b 	c #006282",
"c 	c #633FE2",
"d 	c #00E899",
"e 	c #05998F",
"f 	c #00C09F",
"g 	c #01A899",
"h 	c #01909B",
"i 	c #008FA7",
"j 	c #006E8F",
"k 	c #5E40D9",
"l 	c #00E498",
"m 	c #059490",
"n 	c #00E3B3",
"o 	c #00AF99",
"p 	c #00859F",
"q 	c #009DBE",
"r 	c #046587",
"s 	c #5842D0",
"t 	c #00DE99",
"u 	c #01687D",
"v 	c #00DFB6",
"w 	c #00D1B4",
"x 	c #009DB9",
"y 	c #0093B7",
"z 	c #014A71",
"A 	c #4F45C4",
"B 	c #04D697",
"C 	c #01687C",
"D 	c #00AB9C",
"E 	c #00918F",
"F 	c #00C3B0",
"G 	c #0092B1",
"H 	c #006B8E",
"I 	c #004A73",
"J 	c #03446E",
"K 	c #4345B2",
"L 	c #01CB98",
"M 	c #017D88",
"N 	c #00B298",
"O 	c #00C3A3",
"P 	c #00A797",
"Q 	c #00BEAC",
"R 	c #008E96",
"S 	c #007895",
"T 	c #027B9F",
"U 	c #024A76",
"V 	c #1B5AB0",
"W 	c #1B4EA0",
"X 	c #044274",
"Y 	c #3749A9",
"Z 	c #00C39B",
"` 	c #00C8A0",
" .	c #00DEB4",
"..	c #00C7B1",
"+.	c #009B9D",
"@.	c #01969E",
"#.	c #027291",
"$.	c #086298",
"%.	c #1966BC",
"&.	c #235EC5",
"*.	c #2955C4",
"=.	c #224AA6",
"-.	c #2B4B9D",
";.	c #01B899",
">.	c #028988",
",.	c #00E4AD",
"'.	c #00DDAF",
").	c #00D5B7",
"!.	c #00CCBC",
"~.	c #00BAB8",
"{.	c #889AA2",
"].	c #6A7C8B",
"^.	c #1371BC",
"/.	c #1D64C2",
"(.	c #2358C0",
"_.	c #2851BE",
":.	c #2C4DBD",
"<.	c #0F3E78",
"[.	c #1E4A8F",
"}.	c #01AF97",
"|.	c #039D8D",
"1.	c #00B397",
"2.	c #00DDAE",
"3.	c #00CDB1",
"4.	c #00CBB9",
"5.	c #00A8A5",
"6.	c #376A7A",
"7.	c #CACECE",
"8.	c #A6ABAA",
"9.	c #355372",
"0.	c #1652A1",
"a.	c #2353B8",
"b.	c #264EB6",
"c.	c #284BB4",
"d.	c #1B4290",
"e.	c #104377",
"f.	c #134882",
"g.	c #00A192",
"h.	c #00D2A9",
"i.	c #00D7B1",
"j.	c #00AAA3",
"k.	c #00B8B3",
"l.	c #7A816F",
"m.	c #C3AA53",
"n.	c #CFD2D2",
"o.	c #ACAEAC",
"p.	c #B38C4E",
"q.	c #726A62",
"r.	c #1E4DA7",
"s.	c #224CAD",
"t.	c #234BAA",
"u.	c #2047A0",
"v.	c #084575",
"w.	c #00A497",
"x.	c #00C8AA",
"y.	c #00B9A4",
"z.	c #009399",
"A.	c #00969E",
"B.	c #D5BD4B",
"C.	c #C8AE4D",
"D.	c #CFD2D1",
"E.	c #ACAEAB",
"F.	c #B99048",
"G.	c #C79E44",
"H.	c #13478B",
"I.	c #1C4CA1",
"J.	c #1C4BA0",
"K.	c #174892",
"L.	c #064775",
"M.	c #009F9A",
"N.	c #00AAA0",
"O.	c #00828F",
"P.	c #008D98",
"Q.	c #DBC143",
"R.	c #C9AE4D",
"S.	c #CFD1D1",
"T.	c #ABADAA",
"U.	c #B98F48",
"V.	c #CB9E3F",
"W.	c #0A447C",
"X.	c #144B95",
"Y.	c #144B93",
"Z.	c #064677",
"`.	c #018D93",
" +	c #00A5A5",
".+	c #00A8AC",
"++	c #007187",
"@+	c #A39961",
"#+	c #C9B14C",
"$+	c #D2D5D4",
"%+	c #B3B5B1",
"&+	c #BB9547",
"*+	c #947C55",
"=+	c #0A4980",
"-+	c #0D4C8A",
";+	c #08497D",
">+	c #01456B",
",+	c #008092",
"'+	c #00A4AE",
")+	c #00ABBA",
"!+	c #017E95",
"~+	c #718692",
"{+	c #7B8993",
"]+	c #76828C",
"^+	c #727E88",
"/+	c #01446A",
"(+	c #074D81",
"_+	c #064B7C",
":+	c #014569",
"<+	c #007B92",
"[+	c #019FB3",
"}+	c #01819A",
"|+	c #667D8C",
"1+	c #75838D",
"2+	c #727D86",
"3+	c #516678",
"4+	c #024B75",
"5+	c #034B76",
"6+	c #004669",
"7+	c #006E8B",
"8+	c #01718E",
"9+	c #005071",
"0+	c #015A7E",
"a+	c #0378A9",
"b+	c #00476A",
"c+	c #014A70",
"d+	c #004769",
"e+	c #015B7C",
"f+	c #005275",
"g+	c #004E70",
"h+	c #01567D",
"i+	c #004668",
"j+	c #014667",
"k+	c #015374",
"l+	c #004D6F",
"m+	c #004869",
"n+	c #024C6B",
"o+	c #034766",
"                                                                ",
"                                                                ",
"                                                                ",
"                                                                ",
"                            . + @ #                             ",
"                          $ %     & * =                         ",
"                    - ; >             , ' )                     ",
"              ! ~ {         ] ^ / (         _ : <               ",
"              [           } | 1 2 3 4           5               ",
"              6           7 8 9 0 a b           c               ",
"              d           e f g h i j           k               ",
"              l           m n o p q r           s               ",
"              t           u v w x y z           A               ",
"              B         C D E F G H I J         K               ",
"              L     M N O P Q R S T U V W X     Y               ",
"              Z     ` |  ...+.@.#.$.%.&.*.=.    -.              ",
"              ;.  >.,.'.).!.~.{.].^./.(._.:.<.  [.              ",
"              }.|.1.2.3.4.5.6.7.8.9.0.a.b.c.d.e.f.              ",
"                g.h.i.j.k.l.m.n.o.p.q.r.s.t.u.v.                ",
"                w.x.y.z.A.B.C.D.E.F.G.H.I.J.K.L.                ",
"                  M.N.O.P.Q.R.S.T.U.V.W.X.Y.Z.                  ",
"                  `. +.+++@+#+$+%+&+*+=+-+;+>+                  ",
"                    ,+'+)+!+~+{+]+^+/+(+_+:+                    ",
"                      <+[+}+|+1+2+3+4+5+6+                      ",
"                        7+8+9+0+a+b+c+d+                        ",
"                          e+f+g+h+i+j+                          ",
"                            k+l+m+j+                            ",
"                              n+o+                              ",
"                                                                ",
"                                                                ",
"                                                                ",
"                                                                "};
